<svg width="19" height="19" viewBox="0 0 19 19" fill="none" xmlns="http://www.w3.org/2000/svg">
<path d="M3.09677 0.419342C3.46774 0.419342 3.7871 0.71656 3.85806 1.12737L3.90645 1.58063H17.4774C18.1323 1.58063 18.6548 2.31551 18.471 3.0562L16.729 10.0254C16.6032 10.5262 16.1968 10.871 15.7355 10.871H5.50645L5.80322 12.6129H15.7419C16.171 12.6129 16.5161 13.0012 16.5161 13.4839C16.5161 13.9665 16.171 14.3548 15.7419 14.3548H5.13226C4.79032 14.3548 4.47097 14.0572 4.4 13.6472L2.45613 2.16128H0.774193C0.346774 2.16128 0 1.77116 0 1.29031C0 0.809463 0.346774 0.419342 0.774193 0.419342H3.09677ZM4.12903 17.2581C4.12903 16.2964 4.82258 15.5161 5.67742 15.5161C6.53226 15.5161 7.22581 16.2964 7.22581 17.2581C7.22581 18.2197 6.53226 19 5.67742 19C4.82258 19 4.12903 18.2197 4.12903 17.2581ZM16.5161 17.2581C16.5161 18.2197 15.8226 19 14.9677 19C14.1129 19 13.4194 18.2197 13.4194 17.2581C13.4194 16.2964 14.1129 15.5161 14.9677 15.5161C15.8226 15.5161 16.5161 16.2964 16.5161 17.2581Z" fill="#8769FE"/>
</svg>
