<svg width="24" height="22" viewBox="0 0 24 22" fill="none" xmlns="http://www.w3.org/2000/svg">
<path d="M0.503691 9.50358L9.07511 0.932154C9.40726 0.594654 9.84654 0.428583 10.2858 0.428583C10.7251 0.428583 11.1633 0.595995 11.4976 0.930815C12.1673 1.60046 12.1673 2.68528 11.4976 3.35492L5.85012 9.00001L22.2858 9.00001C23.2324 9.00001 24 9.76608 24 10.7143C24 11.6625 23.2324 12.4286 22.2858 12.4286L5.85012 12.4286L11.4965 18.075C12.1662 18.7446 12.1662 19.8295 11.4965 20.4991C10.8269 21.1688 9.74208 21.1688 9.07244 20.4991L0.501013 11.9277C-0.165951 11.2554 -0.165953 10.1732 0.503691 9.50358Z" fill="white"/>
</svg>
