<svg width="16" height="14" viewBox="0 0 16 14" fill="none" xmlns="http://www.w3.org/2000/svg">
<path d="M15.6642 7.66556L9.94992 13.3801C9.72849 13.6052 9.43564 13.7159 9.14278 13.7159C8.84992 13.7159 8.55778 13.6043 8.33492 13.381C7.8885 12.9346 7.8885 12.2113 8.33492 11.7649L12.0999 8.00129H1.14279C0.511714 8.00129 0 7.49055 0 6.85837C0 6.2262 0.511714 5.71546 1.14279 5.71546H12.0999L8.33564 1.95098C7.88921 1.50453 7.88921 0.781275 8.33564 0.334823C8.78207 -0.111628 9.50528 -0.111628 9.95171 0.334823L15.666 6.0494C16.1106 6.49764 16.1106 7.21911 15.6642 7.66556Z" fill="white"/>
</svg>
